<svg width="48" height="48" viewBox="0 0 48 48" fill="none" xmlns="http://www.w3.org/2000/svg"><path d="M40.8 10.5601H8.88V40.8001H40.8V10.5601Z" fill="#005EB8" id="fillTertiary1"/><path d="M37.44 15.6001H7.20001V34.0801H37.44V15.6001Z" fill="#FFFFFF" id="fillPrimary1"/><path d="M7.20001 39.1201H39.12V15.6001H34.8V15.8221C34.8338 18.0497 34.4243 20.2617 33.5951 22.3295C32.766 24.3973 31.5339 26.2795 29.9705 27.8667C28.4071 29.4538 26.5436 30.7141 24.4885 31.5743C22.4335 32.4345 20.2278 32.8774 18 32.8771H7.20001V39.1201Z" fill="#EAF6FF" id="fillQuinary1"/><path d="M39.12 8.87988H7.20001V15.5999H39.12V8.87988Z" fill="#0091DA" id="fillSecondary1"/><path d="M17.28 20.6399H12.24V25.6799H17.28V20.6399Z" fill="#0091DA" id="fillSecondary2"/><path d="M13.92 6.36002C13.92 5.8961 13.5439 5.52002 13.08 5.52002C12.6161 5.52002 12.24 5.8961 12.24 6.36002V11.4C12.24 11.8639 12.6161 12.24 13.08 12.24C13.5439 12.24 13.92 11.8639 13.92 11.4V6.36002Z" fill="#002F6C" id="fillQuaternary1"/><path d="M34.08 6.36002C34.08 5.8961 33.7039 5.52002 33.24 5.52002C32.7761 5.52002 32.4 5.8961 32.4 6.36002V11.4C32.4 11.8639 32.7761 12.24 33.24 12.24C33.7039 12.24 34.08 11.8639 34.08 11.4V6.36002Z" fill="#002F6C" id="fillQuaternary2"/><path d="M34.08 20.6399H29.04V25.6799H34.08V20.6399Z" fill="#0091DA" id="fillSecondary3"/><path d="M25.68 20.6399H20.64V25.6799H25.68V20.6399Z" fill="#0091DA" id="fillSecondary4"/><path d="M17.28 29.04H12.24V34.08H17.28V29.04Z" fill="#B080A6" id="accentTertiary1"/><path d="M25.68 29.04H20.64V34.08H25.68V29.04Z" fill="#0091DA" id="fillSecondary5"/></svg>