<?xml version="1.0" encoding="UTF-8"?>
<svg id="logosandtypes_com" data-name="logosandtypes com" xmlns="http://www.w3.org/2000/svg" viewBox="0 0 150 150">
  <defs>
    <style>
      .cls-1 {
        fill: #3b5eda;
      }

      .cls-2 {
        fill: none;
      }
    </style>
  </defs>
  <path class="cls-2" d="M0,0H150V150H0V0Z"/>
  <path class="cls-1" d="M116.06,69.5h-23.97c-.51,0-1.14,.35-1.41,.78l-14.36,23.39c-.26,.43-.69,.43-.96,0l-14.21-23.38c-.26-.43-.89-.78-1.4-.78h-24.08c-.51,0-.7,.34-.41,.76l28.4,41.75c.28,.42,.52,1.17,.52,1.67v25.07c0,.5,.42,.91,.93,.91h21.53c.51,0,.93-.41,.93-.91v-25.07c0-.5,.23-1.26,.52-1.67l28.4-41.75c.28-.42,.1-.76-.41-.76h0Z"/>
  <path class="cls-1" d="M74.22,33.38c.63,.34,1.23,.62,1.55,.62s.86-.19,1.55-.62c13.58-8.57,2.28-19.08-1.55-23.04-3.83,3.96-15.13,14.48-1.55,23.04Z"/>
  <path class="cls-1" d="M59.94,64.63c.77-.06,1.49-.17,1.78-.36,.29-.19,.66-.68,1.01-1.48,7-15.76-9.59-18.54-15.45-19.85-1.03,5.84-4.79,22,12.66,21.68h0Z"/>
  <path class="cls-1" d="M37.7,61.19c.65-.41,1.23-.83,1.4-1.14,.17-.3,.26-.9,.2-1.77-1.29-17.16-17.27-11.98-23.08-10.42,1.86,5.63,6.2,21.66,21.48,13.33h0Z"/>
  <path class="cls-1" d="M40.47,89.96c.28-.71,.49-1.4,.44-1.73-.05-.34-.34-.88-.91-1.54-11.39-13.04-21.12,.49-24.85,5.13,4.89,3.44,18.05,13.78,25.32-1.86h0Z"/>
  <path class="cls-1" d="M75.77,37.72c-3,3.33-11.84,12.17-1.22,19.37,.49,.29,.96,.52,1.22,.52s.67-.16,1.21-.52c10.62-7.2,1.78-16.04-1.21-19.37Z"/>
  <path class="cls-1" d="M46.53,97.29c-.17-.12-.53-.2-1.07-.21-10.64-.04-8.87,10.04-8.43,13.69,3.62-.87,13.83-2.76,10.07-12.57-.2-.42-.4-.8-.57-.92h0Z"/>
  <path class="cls-1" d="M74.55,80.02c.49,.29,.96,.52,1.22,.52s.67-.16,1.21-.52c10.62-7.2,1.78-16.04-1.21-19.37-3,3.33-11.84,12.17-1.22,19.37Z"/>
  <path class="cls-1" d="M29.73,74.65c.33-.46,.61-.9,.64-1.14,.02-.25-.1-.67-.42-1.23-6.33-11.07-16.05-3.19-19.69-.55,3.1,3.24,11.24,12.71,19.47,2.93h0Z"/>
  <path class="cls-1" d="M40.68,44.17c.57-.04,1.09-.11,1.3-.26,.21-.14,.46-.51,.69-1.11,4.55-11.89-7.82-14.18-12.21-15.23-.53,4.42-2.67,16.65,10.22,16.59h0Z"/>
  <path class="cls-1" d="M58.11,40.34c.63,.11,1.22,.17,1.48,.07,.26-.1,.64-.43,1.06-1.02,8.21-11.71-4.62-17.5-9.1-19.81-1.79,4.66-7.47,17.39,6.56,20.76h0Z"/>
  <path class="cls-1" d="M89.88,64.27c.29,.19,1,.3,1.78,.36,17.46,.32,13.7-15.84,12.66-21.68-5.87,1.3-22.46,4.08-15.45,19.85,.36,.8,.73,1.28,1.01,1.48h0Z"/>
  <path class="cls-1" d="M112.31,58.28c-.06,.87,.03,1.47,.2,1.77,.17,.3,.75,.73,1.4,1.14,15.28,8.32,19.62-7.7,21.48-13.33-5.8-1.55-21.79-6.73-23.08,10.42h0Z"/>
  <path class="cls-1" d="M111.59,86.68c-.57,.66-.86,1.2-.91,1.54-.05,.34,.16,1.02,.44,1.73,7.26,15.64,20.42,5.3,25.32,1.86-3.73-4.65-13.46-18.18-24.85-5.13h0Z"/>
  <path class="cls-1" d="M106.14,97.08c-.54,0-.9,.09-1.07,.21-.17,.12-.38,.49-.57,.92-3.76,9.8,6.45,11.7,10.07,12.57,.44-3.64,2.21-13.73-8.43-13.69h0Z"/>
  <path class="cls-1" d="M121.64,72.27c-.32,.56-.44,.99-.42,1.23,.02,.25,.3,.69,.64,1.14,8.23,9.78,16.37,.31,19.47-2.93-3.64-2.64-13.36-10.52-19.69,.55h0Z"/>
  <path class="cls-1" d="M109.62,43.91c.21,.14,.73,.21,1.3,.26,12.89,.06,10.75-12.17,10.22-16.59-4.39,1.05-16.77,3.34-12.21,15.23,.23,.6,.49,.97,.69,1.11h0Z"/>
  <path class="cls-1" d="M92,40.41c.26,.1,.85,.04,1.48-.07,14.04-3.37,8.35-16.1,6.56-20.76-4.48,2.31-17.31,8.1-9.1,19.81,.42,.59,.79,.92,1.06,1.02h0Z"/>
</svg>